<svg width="206" height="54" viewBox="0 0 206 54" fill="none" xmlns="http://www.w3.org/2000/svg">
<path d="M48.5518 26.1767H54.202C54.4298 26.1767 54.5665 26.3712 54.5057 26.582C53.6855 29.6135 52.835 32.6289 51.9996 35.6442C51.1643 38.6595 50.3137 41.6749 49.4935 44.7064C49.4328 44.9334 49.1897 45.1117 48.9771 45.1117H43.3118C43.0991 45.1117 42.9473 44.9334 43.008 44.7064C43.8434 41.6911 44.6787 38.6595 45.5141 35.6442C46.3495 32.6289 47.2 29.6135 48.0202 26.582C48.081 26.355 48.324 26.1767 48.5518 26.1767Z" fill="#00484F"/>
<path d="M102.864 33.397C103.547 31.1254 104.247 28.8539 104.93 26.5823C104.997 26.3552 105.23 26.1767 105.48 26.1767H111.698C111.948 26.1767 112.081 26.3552 112.031 26.5823C111.398 28.6754 110.764 30.7685 110.131 32.8453C109.497 34.9384 108.881 37.0315 108.247 39.1083C107.964 40.0169 108.547 40.7471 109.531 40.7471H120.032C120.282 40.7471 120.432 40.9418 120.365 41.1527C119.998 42.3372 119.648 43.5216 119.282 44.7061C119.215 44.9332 118.948 45.1117 118.715 45.1117H104.647C103.18 45.1117 102.013 44.56 101.33 43.6676C100.647 42.7752 100.413 41.5421 100.83 40.1954C101.513 37.9239 102.197 35.6523 102.88 33.3808L102.864 33.397Z" fill="#00484F"/>
<path d="M123.568 35.6523C124.002 34.1271 124.452 32.6182 124.903 31.093C125.289 29.7463 126.238 28.4969 127.412 27.6208C128.603 26.7284 130.066 26.1767 131.498 26.1767H148.05C148.291 26.1767 148.42 26.3552 148.356 26.5823C148.002 27.7668 147.648 28.9512 147.31 30.1357C147.246 30.3628 147.004 30.5413 146.763 30.5413H133.621C132.688 30.5413 131.707 31.2877 131.45 32.1801C131.321 32.6019 131.192 33.0238 131.064 33.4619H144.189C144.415 33.4619 144.575 33.6404 144.495 33.8675C144.157 35.052 143.803 36.2364 143.466 37.4209C143.401 37.648 143.144 37.8265 142.919 37.8265H129.793C129.664 38.2484 129.552 38.6702 129.407 39.1083C129.149 40.0169 129.712 40.7471 130.629 40.7471H143.771C144.012 40.7471 144.157 40.9255 144.077 41.1527C143.739 42.3372 143.385 43.5216 143.031 44.7061C142.967 44.9332 142.726 45.1117 142.484 45.1117H125.932C124.517 45.1117 123.375 44.56 122.715 43.6676C122.056 42.7752 121.831 41.5421 122.217 40.1954C122.667 38.6702 123.117 37.1613 123.552 35.6361L123.568 35.6523Z" fill="#00484F"/>
<path d="M154.466 44.9011C154.35 45.0469 154.17 45.1117 154.005 45.1117H147.05C146.902 45.1117 146.803 45.0469 146.738 44.9173C146.705 44.7877 146.738 44.642 146.853 44.5124C149.467 41.4996 152.098 38.4707 154.696 35.4579C157.31 32.4452 159.941 29.4162 162.572 26.4035C162.67 26.2577 162.851 26.1767 163.016 26.1767H169.478C169.642 26.1767 169.79 26.2577 169.806 26.4035C170.629 29.4162 171.434 32.4452 172.256 35.4579C173.062 38.4707 173.901 41.4996 174.706 44.5124C174.739 44.642 174.69 44.7877 174.575 44.9173C174.46 45.0469 174.295 45.1117 174.147 45.1117H167.192C167.028 45.1117 166.913 45.0307 166.88 44.9011C166.666 44.156 166.469 43.4109 166.271 42.6659H156.406C155.765 43.4109 155.107 44.156 154.466 44.9011ZM165.087 38.2925C164.693 36.8509 164.298 35.4255 163.92 33.9839C162.67 35.4255 161.437 36.8509 160.188 38.2925H165.087Z" fill="#00484F"/>
<path d="M182.589 26.1767H201.853C203.358 26.1767 204.556 26.7441 205.257 27.6195C205.976 28.5111 206.215 29.7432 205.787 31.0888C205.325 32.6127 204.846 34.1203 204.367 35.6442C203.888 37.1681 203.427 38.6757 202.965 40.1996C202.554 41.5452 201.527 42.7772 200.279 43.6689C199.03 44.5605 197.473 45.1117 195.984 45.1117H176.721C176.464 45.1117 176.31 44.9334 176.379 44.7064C177.32 41.6911 178.26 38.6595 179.201 35.6442C180.142 32.6289 181.083 29.6135 182.024 26.582C182.093 26.355 182.349 26.1767 182.606 26.1767H182.589ZM187.02 40.7508H193.675C194.667 40.7508 195.711 40.0051 195.984 39.1134C196.361 37.9624 196.703 36.8114 197.062 35.6604C197.422 34.5094 197.781 33.3584 198.14 32.1912C198.414 31.2833 197.815 30.5538 196.823 30.5538H188.029C187.499 32.256 186.968 33.9582 186.438 35.6604C185.908 37.3626 185.395 39.0648 184.864 40.767H187.003L187.02 40.7508Z" fill="#00484F"/>
<path d="M56.4933 30.5501C56.2573 30.5501 56.1056 30.3719 56.1899 30.1451C56.5438 28.9627 56.9146 27.7803 57.2686 26.5978C57.336 26.3711 57.5888 26.1767 57.8417 26.1767H80.5279C80.7639 26.1767 80.9155 26.3549 80.8481 26.5978C80.4773 27.7803 80.1065 28.9627 79.7694 30.1451C79.702 30.3719 79.4492 30.5501 79.1964 30.5501H71.4601C70.7354 32.9149 70.0106 35.2636 69.2859 37.6284C68.5612 39.9933 67.8364 42.3419 67.1117 44.7068C67.0442 44.9335 66.7746 45.1117 66.5386 45.1117H60.2519C59.999 45.1117 59.8473 44.9335 59.9316 44.7068C60.6564 42.3419 61.3643 39.9933 62.089 37.6284C62.8137 35.2636 63.5385 32.9149 64.2632 30.5501H56.527H56.4933Z" fill="#00484F"/>
<path d="M100.172 34.3034H96.5175C95.993 34.3034 95.6715 34.5273 95.3669 34.7833C95.1131 35.0072 94.4193 35.5672 93.4548 36.463L90.5106 31.9837C90.5106 31.9837 89.8846 31.0399 89.6308 30.672C89.6308 30.672 89.6307 30.656 89.6138 30.64C89.5969 30.608 89.58 30.592 89.5631 30.576C89.5461 30.544 89.5292 30.512 89.5292 30.512H97.3805C97.6343 30.512 97.8881 30.336 97.9558 30.1121C98.3111 28.9442 98.6834 27.7764 99.0387 26.6086C99.0387 26.5766 99.0387 26.5446 99.0387 26.5126C99.0387 26.3207 98.9202 26.1767 98.7003 26.1767H84.7237C84.5207 26.2087 84.3515 26.2567 84.2161 26.3367C84.1484 26.4007 84.0977 26.4806 84.0638 26.5606C83.7593 27.5685 83.4378 28.5763 83.1163 29.5841C82.9809 30.0161 83.0486 30.496 83.3193 30.8799L85.4175 33.9674C85.4175 33.9674 85.4006 33.9674 85.3836 33.9674C85.316 33.9674 85.2652 33.9994 85.1975 33.9994C85.096 34.0154 84.9945 34.0474 84.893 34.0634C82.6425 34.6393 79.8336 36.367 79.3091 39.1186C79.2076 39.6305 78.9199 41.7741 80.409 43.3899C81.5257 44.6217 83.0824 44.9096 83.6239 45.0056C84.8422 45.2296 85.8743 45.0536 86.8558 44.8936C87.7187 44.7496 88.4294 44.5417 88.9201 44.3657C89.1401 44.2697 89.3431 44.1897 89.5631 44.0778C89.5631 44.0778 89.58 44.0778 89.5969 44.0618C90.3245 43.7258 90.9337 43.3579 91.4244 43.0219L92.4058 44.5257C92.4058 44.5257 92.4396 44.5737 92.4734 44.6057C92.4734 44.6217 92.5073 44.6377 92.5242 44.6537C92.5242 44.6537 92.5242 44.6537 92.5411 44.6697C92.558 44.6857 92.5919 44.7176 92.6257 44.7336C92.6596 44.7496 92.6765 44.7816 92.7103 44.7976C92.8457 44.8776 92.998 44.9416 93.1333 44.9416C93.2856 44.9416 95.1977 44.9416 95.1977 44.9416C95.8068 44.9416 98.1419 44.9416 98.6495 44.9576C98.8864 44.9576 98.971 44.7656 98.8356 44.5577L98.6664 44.3017L96.6359 41.2302L95.5192 39.5345L100.325 35.0392C100.663 34.6713 100.832 34.2394 100.172 34.2394V34.3034ZM89.3939 39.9984C89.157 40.2704 88.8186 40.5903 88.3109 40.8143C87.1096 41.3742 85.942 41.0063 85.6882 40.9263C85.519 40.8463 85.1129 40.5903 84.8591 40.0784C84.8591 40.0784 84.5545 39.5505 84.7068 38.9426C85.0283 37.5508 87.228 37.0709 87.3972 37.0229L89.4108 39.9664L89.3939 39.9984Z" fill="#00484F"/>
<path d="M42.5535 26.3941H26.2526C24.9681 26.3941 23.8311 27.1975 23.462 28.3814L21.4687 34.8367C21.3358 35.2596 20.9371 35.5415 20.4794 35.5415H5.12355C3.83897 35.5415 2.70204 36.3449 2.33291 37.5288L0 45.1117H16.3009C17.5854 45.1117 18.7224 44.3083 19.0915 43.1243L21.0848 36.6549C21.2177 36.2321 21.6163 35.9502 22.0741 35.9502H37.4299C38.7145 35.9502 39.8514 35.1468 40.2206 33.9629L42.5535 26.38V26.3941Z" fill="#00484F"/>
<path d="M47.1616 8.88818H30.8607C29.5761 8.88818 28.4392 9.69157 28.0701 10.8755L26.1654 17.0489C25.9882 17.6409 25.4123 18.0496 24.7627 18.0496H9.87928C8.59471 18.0496 7.45778 18.853 7.08865 20.037L4.75574 27.6199H21.0566C22.3412 27.6199 23.4781 26.8165 23.8472 25.6325L25.7815 19.3604C25.9439 18.8249 26.4459 18.4725 27.0365 18.4725H60.4356C61.7201 18.4725 62.8571 17.6691 63.2262 16.4852L65.5591 8.90228H47.1616V8.88818Z" fill="#00484F"/>
</svg>
