<svg width="34" height="34" viewBox="0 0 34 34" fill="none" xmlns="http://www.w3.org/2000/svg">
<path d="M8.91962 16.6615C8.91962 16.6615 15.5538 13.8078 17.8546 12.8029C18.7366 12.401 21.7277 11.1148 21.7277 11.1148C21.7277 11.1148 23.1083 10.5521 22.9932 11.9186C22.9548 12.4814 22.6481 14.4509 22.3413 16.5811C21.8811 19.5957 21.3826 22.8916 21.3826 22.8916C21.3826 22.8916 21.3059 23.8161 20.654 23.9768C20.0021 24.1376 18.9283 23.4142 18.7366 23.2533C18.5832 23.1328 15.8605 21.324 14.8635 20.4398C14.5951 20.1986 14.2883 19.7163 14.9018 19.1536C16.2824 17.8272 17.9313 16.1792 18.9283 15.1342C19.3885 14.6518 19.8487 13.5264 17.9313 14.893C15.2086 16.8625 12.5243 18.7114 12.5243 18.7114C12.5243 18.7114 11.9107 19.1134 10.7603 18.7516C9.60984 18.3899 8.26767 17.9076 8.26767 17.9076C8.26767 17.9076 7.34739 17.3047 8.91962 16.6615Z" fill="#FBEA1C"/>
<circle cx="17" cy="17" r="16" stroke="#FBEA1C" stroke-width="2"/>
</svg>
