<svg width="206" height="54" viewBox="0 0 143 27" fill="none" xmlns="http://www.w3.org/2000/svg" preserveAspectRatio="xMidYMid meet">
<path d="M32.5757 13.0664H36.9159C37.0909 13.0664 37.196 13.2074 37.1493 13.3601C36.5192 15.5573 35.8659 17.7427 35.2242 19.9282C34.5825 22.1136 33.9291 24.3108 33.2991 26.4962C33.2524 26.6607 33.0657 26.79 32.9024 26.79H28.5505C28.3871 26.79 28.2705 26.6607 28.3171 26.4962C28.9588 24.3108 29.6005 22.1136 30.2422 19.9282C30.8839 17.7427 31.5373 15.5573 32.1673 13.3601C32.214 13.1956 32.4007 13.0664 32.5757 13.0664Z" fill="#FBEA1C"/>
<path d="M70.5413 18.3068C71.0197 16.6619 71.5097 15.0169 71.988 13.372C72.0347 13.2075 72.198 13.0782 72.3731 13.0782H76.725C76.9 13.0782 76.9933 13.2075 76.9583 13.372C76.5149 14.8877 76.0716 16.4034 75.6282 17.9074C75.1849 19.4231 74.7532 20.9388 74.3098 22.4427C74.1115 23.1007 74.5198 23.6294 75.2082 23.6294H82.5586C82.7336 23.6294 82.8386 23.7704 82.792 23.9232C82.5353 24.7809 82.2903 25.6386 82.0336 26.4963C81.9869 26.6608 81.8002 26.7901 81.6369 26.7901H71.7897C70.763 26.7901 69.9463 26.3906 69.4679 25.7444C68.9895 25.0981 68.8262 24.2052 69.1179 23.2299C69.5962 21.585 70.0746 19.94 70.553 18.2951L70.5413 18.3068Z" fill="#FBEA1C"/>
<path d="M84.8569 19.94C85.1719 18.8356 85.4986 17.7429 85.8253 16.6384C86.1053 15.6632 86.7937 14.7584 87.6454 14.124C88.5088 13.4777 89.5705 13.0782 90.6089 13.0782H102.615C102.79 13.0782 102.883 13.2075 102.836 13.372C102.58 14.2297 102.323 15.0874 102.078 15.9452C102.031 16.1097 101.856 16.2389 101.681 16.2389H92.149C91.4723 16.2389 90.7606 16.7794 90.5739 17.4256C90.4806 17.7311 90.3872 18.0366 90.2939 18.3538H99.8144C99.9777 18.3538 100.094 18.4831 100.036 18.6476C99.7911 19.5053 99.5344 20.363 99.2894 21.2208C99.2427 21.3852 99.056 21.5145 98.8927 21.5145H89.3722C89.2788 21.82 89.1971 22.1255 89.0921 22.4427C88.9055 23.1007 89.3138 23.6294 89.9789 23.6294H99.5111C99.6861 23.6294 99.7911 23.7587 99.7327 23.9232C99.4877 24.7809 99.231 25.6386 98.9744 26.4963C98.9277 26.6608 98.7527 26.7901 98.5777 26.7901H86.572C85.5453 26.7901 84.7169 26.3906 84.2385 25.7444C83.7602 25.0981 83.5968 24.2052 83.8769 23.2299C84.2035 22.1255 84.5302 21.0328 84.8452 19.9283L84.8569 19.94Z" fill="#FBEA1C"/>
<path d="M106.255 26.649C106.173 26.7547 106.045 26.8017 105.928 26.8017H100.993C100.888 26.8017 100.818 26.7547 100.771 26.6607C100.748 26.5667 100.771 26.461 100.853 26.367C102.708 24.1815 104.575 21.9844 106.418 19.7989C108.273 17.6135 110.14 15.4163 112.007 13.2309C112.077 13.1251 112.205 13.0664 112.322 13.0664H116.907C117.024 13.0664 117.129 13.1251 117.141 13.2309C117.724 15.4163 118.296 17.6135 118.879 19.7989C119.451 21.9844 120.046 24.1815 120.617 26.367C120.641 26.461 120.606 26.5667 120.524 26.6607C120.442 26.7547 120.326 26.8017 120.221 26.8017H115.285C115.169 26.8017 115.087 26.743 115.064 26.649C114.912 26.1085 114.772 25.568 114.632 25.0275H107.632C107.177 25.568 106.71 26.1085 106.255 26.649ZM113.792 21.8551C113.512 20.8094 113.232 19.7754 112.964 18.7297C112.077 19.7754 111.202 20.8094 110.315 21.8551H113.792Z" fill="#FBEA1C"/>
<path d="M126.649 13.0664H139.787C140.813 13.0664 141.63 13.4776 142.108 14.1121C142.598 14.7583 142.762 15.6513 142.47 16.6265C142.155 17.731 141.828 18.8237 141.502 19.9282C141.175 21.0326 140.86 22.1254 140.545 23.2298C140.265 24.205 139.565 25.098 138.713 25.7442C137.861 26.3905 136.8 26.79 135.785 26.79H122.647C122.472 26.79 122.367 26.6607 122.414 26.4962C123.056 24.3108 123.697 22.1136 124.339 19.9282C124.981 17.7427 125.622 15.5573 126.264 13.3601C126.311 13.1956 126.486 13.0664 126.661 13.0664H126.649ZM129.671 23.6293H134.21C134.886 23.6293 135.598 23.0888 135.785 22.4426C136.041 21.6084 136.275 20.7741 136.52 19.9399C136.765 19.1057 137.01 18.2715 137.255 17.4255C137.441 16.7675 137.033 16.2388 136.356 16.2388H130.359C129.998 17.4725 129.636 18.7062 129.274 19.9399C128.913 21.1736 128.563 22.4073 128.201 23.6411H129.659L129.671 23.6293Z" fill="#FBEA1C"/>
<path d="M38.3858 16.2388C38.2225 16.2388 38.1175 16.1095 38.1758 15.945C38.4208 15.0873 38.6775 14.2296 38.9225 13.3719C38.9692 13.2074 39.1442 13.0664 39.3192 13.0664H55.0234C55.1868 13.0664 55.2918 13.1956 55.2451 13.3719C54.9884 14.2296 54.7317 15.0873 54.4984 15.945C54.4517 16.1095 54.2767 16.2388 54.1017 16.2388H48.7464C48.2447 17.9542 47.743 19.6579 47.2413 21.3734C46.7396 23.0888 46.2379 24.7925 45.7362 26.508C45.6896 26.6725 45.5029 26.8017 45.3396 26.8017H40.9876C40.8126 26.8017 40.7076 26.6725 40.766 26.508C41.2677 24.7925 41.7577 23.0888 42.2594 21.3734C42.7611 19.6579 43.2628 17.9542 43.7645 16.2388H38.4092H38.3858Z" fill="#FBEA1C"/>
<path d="M68.1488 19.0233H65.6287C65.267 19.0233 65.0453 19.1878 64.8353 19.3758C64.6603 19.5403 64.1819 19.9515 63.5169 20.6095L61.4868 17.3196C61.4868 17.3196 61.0551 16.6264 60.8801 16.3562C60.8801 16.3562 60.8801 16.3444 60.8684 16.3327C60.8568 16.3092 60.8451 16.2974 60.8334 16.2857C60.8218 16.2622 60.8101 16.2387 60.8101 16.2387H66.2237C66.3987 16.2387 66.5737 16.1094 66.6204 15.9449C66.8654 15.0872 67.1221 14.2295 67.3671 13.3717C67.3671 13.3482 67.3671 13.3247 67.3671 13.3012C67.3671 13.1603 67.2854 13.0545 67.1338 13.0545H57.4966C57.3566 13.078 57.2399 13.1133 57.1466 13.172C57.0999 13.219 57.0649 13.2777 57.0416 13.3365C56.8315 14.0767 56.6099 14.817 56.3882 15.5572C56.2948 15.8744 56.3415 16.2269 56.5282 16.5089L57.9749 18.7766C57.9749 18.7766 57.9633 18.7766 57.9516 18.7766C57.9049 18.7766 57.8699 18.8001 57.8233 18.8001C57.7533 18.8118 57.6833 18.8353 57.6132 18.8471C56.0615 19.2701 54.1247 20.539 53.763 22.56C53.693 22.936 53.4947 24.5104 54.5214 25.6971C55.2915 26.6018 56.3648 26.8133 56.7499 26.8838C57.5899 27.0483 58.3016 26.9191 58.9783 26.8016C59.5734 26.6958 60.0634 26.5431 60.4017 26.4139C60.5534 26.3434 60.6934 26.2846 60.8451 26.2024C60.8451 26.2024 60.8568 26.2024 60.8684 26.1906C61.3701 25.9439 61.7901 25.6736 62.1285 25.4269L62.8052 26.5313C62.8052 26.5313 62.8285 26.5666 62.8519 26.5901C62.8519 26.6018 62.8752 26.6136 62.8869 26.6253C62.8869 26.6253 62.8869 26.6253 62.8985 26.6371C62.9102 26.6488 62.9335 26.6723 62.9569 26.6841C62.9802 26.6958 62.9919 26.7193 63.0152 26.7311C63.1086 26.7898 63.2136 26.8368 63.3069 26.8368C63.4119 26.8368 64.7303 26.8368 64.7303 26.8368C65.1503 26.8368 66.7604 26.8368 67.1104 26.8486C67.2738 26.8486 67.3321 26.7076 67.2388 26.5548L67.1221 26.3669L65.722 24.1109L64.952 22.8655L68.2655 19.5638C68.4988 19.2936 68.6155 18.9763 68.1605 18.9763L68.1488 19.0233ZM60.7168 23.2062C60.5534 23.4059 60.3201 23.6409 59.97 23.8054C59.1417 24.2167 58.3366 23.9464 58.1616 23.8877C58.0449 23.8289 57.7649 23.6409 57.5899 23.2649C57.5899 23.2649 57.3799 22.8772 57.4849 22.4307C57.7066 21.4085 59.2233 21.056 59.34 21.0208L60.7284 23.1827L60.7168 23.2062Z" fill="#FBEA1C"/>
<path d="M30.4519 13.0418H18.9363C18.0262 13.0418 17.2212 13.641 16.9645 14.5223L15.5644 19.3396C15.4711 19.6569 15.1911 19.8684 14.8644 19.8684H4.00212C3.09207 19.8684 2.28703 20.4676 2.03034 21.3488L0.385254 27.0004H11.9009C12.8109 27.0004 13.616 26.4012 13.8727 25.5199L15.2727 20.7026C15.3661 20.3853 15.6461 20.1738 15.9728 20.1738H26.8234C27.7334 20.1738 28.5385 19.5746 28.7952 18.6934L30.4403 13.0418H30.4519Z" fill="#FBEA1C"/>
<path d="M33.7067 0H22.1911C21.281 0 20.476 0.599232 20.2193 1.48046L18.8775 6.07457C18.7492 6.52105 18.3409 6.82654 17.8858 6.82654H7.37358C6.46353 6.82654 5.65849 7.42578 5.4018 8.307L3.75671 13.9586H15.2723C16.1824 13.9586 16.9874 13.3593 17.2441 12.4781L18.6092 7.80176C18.7259 7.40228 19.0876 7.13203 19.4959 7.13203H43.0872C43.9973 7.13203 44.8023 6.5328 45.059 5.65158L46.7041 0L33.7067 0Z" fill="#FBEA1C"/>
</svg>
