<svg width="34" height="34" viewBox="0 0 34 34" fill="none" xmlns="http://www.w3.org/2000/svg">
  <path d="M17 0C7.611 0 0 7.611 0 17C0 26.389 7.611 34 17 34C26.389 34 34 26.389 34 17C34 7.611 26.389 0 17 0ZM24.871 11.634L22.108 24.565C21.899 25.5 21.367 25.721 20.609 25.296L16.354 22.167L14.308 24.14C14.081 24.367 13.891 24.557 13.45 24.557L13.757 20.23L21.592 13.152C21.937 12.845 21.516 12.672 21.058 12.979L11.414 19.104L7.208 17.804C6.295 17.518 6.276 16.909 7.404 16.484L23.743 10.322C24.502 10.036 25.162 10.487 24.871 11.634Z" fill="#00484F"/>
</svg>
