<svg width="34" height="34" viewBox="0 0 34 34" fill="none" xmlns="http://www.w3.org/2000/svg">
  <path d="M17 0C7.611 0 0 7.611 0 17C0 26.389 7.611 34 17 34C26.389 34 34 26.389 34 17C34 7.611 26.389 0 17 0ZM23.715 19.108C23.715 19.108 25.161 20.533 25.503 21.194C25.512 21.207 25.517 21.221 25.521 21.229C25.669 21.485 25.703 21.683 25.629 21.833C25.503 22.084 25.063 22.213 24.912 22.225H22.313C22.142 22.225 21.775 22.18 21.329 21.891C21.003 21.674 20.681 21.342 20.368 21.017C19.899 20.531 19.498 20.113 19.095 20.113C19.038 20.113 18.982 20.122 18.929 20.141C18.574 20.262 18.123 20.754 18.123 22.029C18.123 22.416 17.813 22.223 17.517 22.223H16.298C15.84 22.223 13.421 22.071 11.298 19.844C8.77 17.188 6.503 11.861 6.486 11.82C6.335 11.476 6.626 11.294 6.945 11.294H9.567C9.952 11.294 10.078 11.527 10.169 11.733C10.276 11.971 10.667 12.982 11.302 14.115C12.342 15.993 12.975 16.645 13.484 16.645C13.572 16.645 13.657 16.623 13.733 16.582C14.472 16.168 14.334 13.762 14.302 13.332C14.302 13.245 14.301 12.321 13.983 11.905C13.748 11.598 13.344 11.48 13.096 11.437C13.189 11.308 13.316 11.199 13.467 11.122C13.898 10.899 14.691 10.872 15.577 10.872H16.041C17.017 10.884 17.263 10.945 17.633 11.036C18.377 11.212 18.392 11.692 18.326 13.139C18.307 13.552 18.287 14.022 18.287 14.578C18.287 14.687 18.282 14.804 18.282 14.926C18.261 15.699 18.235 16.574 18.821 16.972C18.884 17.015 18.958 17.037 19.035 17.037C19.232 17.037 19.738 17.037 21.233 14.143C21.669 13.342 22.029 12.502 22.308 11.634C22.335 11.577 22.438 11.346 22.559 11.254C22.638 11.196 22.733 11.167 22.829 11.171H25.951C26.321 11.171 26.577 11.254 26.624 11.424C26.703 11.692 26.601 12.482 24.829 14.926L24.028 16.008C22.418 18.169 22.418 18.275 23.715 19.108Z" fill="#00484F"/>
</svg>
