<svg width="34" height="34" viewBox="0 0 34 34" fill="none" xmlns="http://www.w3.org/2000/svg">
<path fill-rule="evenodd" clip-rule="evenodd" d="M24.6099 13.6771C24.7281 13.2868 24.6099 13 24.0475 13H22.1877C21.7148 13 21.4968 13.2478 21.3785 13.521C21.3785 13.521 20.4328 15.8043 19.093 17.2875C18.6595 17.7169 18.4624 17.8535 18.226 17.8535C18.1078 17.8535 17.9367 17.7169 17.9367 17.3266V13.6771C17.9367 13.2087 17.7994 13 17.4053 13H14.4828C14.1872 13 14.0095 13.2174 14.0095 13.4234C14.0095 13.8674 14.6794 13.9698 14.7484 15.2189V17.9316C14.7484 18.5263 14.64 18.6341 14.4036 18.6341C13.7731 18.6341 12.2394 16.3406 11.3298 13.7162C11.1516 13.2061 10.9728 13 10.4975 13H8.63765C8.10628 13 8 13.2478 8 13.521C8 14.0089 8.63052 16.4289 10.9358 19.6294C12.4726 21.8152 14.6379 23 16.6083 23C17.7904 23 17.9367 22.7368 17.9367 22.2836V20.6316C17.9367 20.1053 18.0487 20.0002 18.423 20.0002C18.6989 20.0002 19.1718 20.1368 20.2752 21.1907C21.5362 22.4397 21.7441 23 22.4534 23H24.3132C24.8445 23 25.1102 22.7368 24.957 22.2175C24.7892 21.6999 24.1872 20.949 23.3883 20.0588C22.9548 19.5514 22.3046 19.0049 22.1076 18.7317C21.8317 18.3804 21.9105 18.2243 22.1076 17.912C22.1076 17.912 24.3735 14.7505 24.6099 13.6771Z" fill="#FBEA1C"/>
<circle cx="17" cy="17" r="16" stroke="#FBEA1C" stroke-width="2"/>
</svg>
